name rise35.5848peak51.9257fall54.8793.mot
datacolumns 19
datarows 24
range 15.49493700000000 15.53327400000000
endheader
time	ground_force1_vx	ground_force1_vy	ground_force1_vz	ground_force1_px	ground_force1_py	ground_force1_pz	ground_force2_vx	ground_force2_vy	ground_force2_vz	ground_force2_px	ground_force2_py	ground_force2_pz	ground_torque1_x	ground_torque1_y	ground_torque1_z	ground_torque2_x	ground_torque2_y	ground_torque2_z	
15.49493700000000	57.05970700000000	760.70451700000001	57.29450000000000	0.27705600000000	0.00000000000000	0.12707800000000	0.00000000000000	0.00000000000000	0.00000000000000	0.00000000000000	0.00000000000000	0.00000000000000	0.00000000000000	17.58136600000000	0.00000000000000	0.00000000000000	0.00000000000000	0.00000000000000	
15.49660300000000	56.42717800000000	762.47449300000005	57.34704200000000	0.27613600000000	0.00000000000000	0.12710500000000	0.00000000000000	0.00000000000000	0.00000000000000	0.00000000000000	0.00000000000000	0.00000000000000	0.00000000000000	17.64333500000000	0.00000000000000	0.00000000000000	0.00000000000000	0.00000000000000	
15.49826600000000	55.79487100000000	764.14559499999996	57.40050500000000	0.27523000000000	0.00000000000000	0.12713400000000	0.00000000000000	0.00000000000000	0.00000000000000	0.00000000000000	0.00000000000000	0.00000000000000	0.00000000000000	17.70714100000000	0.00000000000000	0.00000000000000	0.00000000000000	0.00000000000000	
15.49993900000000	55.16332700000000	765.71769600000005	57.45494000000000	0.27433700000000	0.00000000000000	0.12716400000000	0.00000000000000	0.00000000000000	0.00000000000000	0.00000000000000	0.00000000000000	0.00000000000000	0.00000000000000	17.77269700000000	0.00000000000000	0.00000000000000	0.00000000000000	0.00000000000000	
15.50161400000000	54.53302200000000	767.19070499999998	57.51032600000000	0.27345600000000	0.00000000000000	0.12719500000000	0.00000000000000	0.00000000000000	0.00000000000000	0.00000000000000	0.00000000000000	0.00000000000000	0.00000000000000	17.83988400000000	0.00000000000000	0.00000000000000	0.00000000000000	0.00000000000000	
15.50327600000000	53.90437200000000	768.56457399999999	57.56657400000000	0.27258600000000	0.00000000000000	0.12722800000000	0.00000000000000	0.00000000000000	0.00000000000000	0.00000000000000	0.00000000000000	0.00000000000000	0.00000000000000	17.90855100000000	0.00000000000000	0.00000000000000	0.00000000000000	0.00000000000000	
15.50495400000000	53.27773600000000	769.83930999999995	57.62352900000000	0.27172500000000	0.00000000000000	0.12726100000000	0.00000000000000	0.00000000000000	0.00000000000000	0.00000000000000	0.00000000000000	0.00000000000000	0.00000000000000	17.97851800000000	0.00000000000000	0.00000000000000	0.00000000000000	0.00000000000000	
15.50659800000000	52.65341400000000	771.01498500000002	57.68097800000000	0.27087300000000	0.00000000000000	0.12729700000000	0.00000000000000	0.00000000000000	0.00000000000000	0.00000000000000	0.00000000000000	0.00000000000000	0.00000000000000	18.04957800000000	0.00000000000000	0.00000000000000	0.00000000000000	0.00000000000000	
15.50827100000000	52.03165800000000	772.09174599999994	57.73865400000000	0.27002700000000	0.00000000000000	0.12733300000000	0.00000000000000	0.00000000000000	0.00000000000000	0.00000000000000	0.00000000000000	0.00000000000000	0.00000000000000	18.12150000000000	0.00000000000000	0.00000000000000	0.00000000000000	0.00000000000000	
15.50993700000000	51.41267000000000	773.06982400000004	57.79624000000000	0.26918700000000	0.00000000000000	0.12737100000000	0.00000000000000	0.00000000000000	0.00000000000000	0.00000000000000	0.00000000000000	0.00000000000000	0.00000000000000	18.19403200000000	0.00000000000000	0.00000000000000	0.00000000000000	0.00000000000000	
15.51160000000000	50.79660800000000	773.94954099999995	57.85337500000000	0.26835000000000	0.00000000000000	0.12741100000000	0.00000000000000	0.00000000000000	0.00000000000000	0.00000000000000	0.00000000000000	0.00000000000000	0.00000000000000	18.26690300000000	0.00000000000000	0.00000000000000	0.00000000000000	0.00000000000000	
15.51326700000000	50.18359100000000	774.73131899999998	57.90965800000000	0.26751600000000	0.00000000000000	0.12745100000000	0.00000000000000	0.00000000000000	0.00000000000000	0.00000000000000	0.00000000000000	0.00000000000000	0.00000000000000	18.33982300000000	0.00000000000000	0.00000000000000	0.00000000000000	0.00000000000000	
15.51493400000000	49.57370000000000	775.41568900000004	57.96465800000000	0.26668300000000	0.00000000000000	0.12749400000000	0.00000000000000	0.00000000000000	0.00000000000000	0.00000000000000	0.00000000000000	0.00000000000000	0.00000000000000	18.41249400000000	0.00000000000000	0.00000000000000	0.00000000000000	0.00000000000000	
15.51660700000000	48.96698400000000	776.00329599999998	58.01791300000000	0.26585000000000	0.00000000000000	0.12753700000000	0.00000000000000	0.00000000000000	0.00000000000000	0.00000000000000	0.00000000000000	0.00000000000000	0.00000000000000	18.48460100000000	0.00000000000000	0.00000000000000	0.00000000000000	0.00000000000000	
15.51826700000000	48.36346500000000	776.49490100000003	58.06894200000000	0.26501600000000	0.00000000000000	0.12758200000000	0.00000000000000	0.00000000000000	0.00000000000000	0.00000000000000	0.00000000000000	0.00000000000000	0.00000000000000	18.55582500000000	0.00000000000000	0.00000000000000	0.00000000000000	0.00000000000000	
15.51993900000000	47.76314100000000	776.89139299999999	58.11724500000000	0.26417800000000	0.00000000000000	0.12762800000000	0.00000000000000	0.00000000000000	0.00000000000000	0.00000000000000	0.00000000000000	0.00000000000000	0.00000000000000	18.62584000000000	0.00000000000000	0.00000000000000	0.00000000000000	0.00000000000000	
15.52159900000000	47.16598800000000	777.19378800000004	58.16231500000000	0.26333700000000	0.00000000000000	0.12767500000000	0.00000000000000	0.00000000000000	0.00000000000000	0.00000000000000	0.00000000000000	0.00000000000000	0.00000000000000	18.69431900000000	0.00000000000000	0.00000000000000	0.00000000000000	0.00000000000000	
15.52326700000000	46.57196600000000	777.40323400000000	58.20363700000000	0.26249000000000	0.00000000000000	0.12772300000000	0.00000000000000	0.00000000000000	0.00000000000000	0.00000000000000	0.00000000000000	0.00000000000000	0.00000000000000	18.76093200000000	0.00000000000000	0.00000000000000	0.00000000000000	0.00000000000000	
15.52493600000000	45.98102600000000	777.52101100000004	58.24069500000000	0.26163600000000	0.00000000000000	0.12777200000000	0.00000000000000	0.00000000000000	0.00000000000000	0.00000000000000	0.00000000000000	0.00000000000000	0.00000000000000	18.82535400000000	0.00000000000000	0.00000000000000	0.00000000000000	0.00000000000000	
15.52660000000000	45.39310600000000	777.54853800000001	58.27298000000000	0.26077500000000	0.00000000000000	0.12782300000000	0.00000000000000	0.00000000000000	0.00000000000000	0.00000000000000	0.00000000000000	0.00000000000000	0.00000000000000	18.88726300000000	0.00000000000000	0.00000000000000	0.00000000000000	0.00000000000000	
15.52826700000000	44.80814100000000	777.48736799999995	58.29999300000000	0.25990500000000	0.00000000000000	0.12787400000000	0.00000000000000	0.00000000000000	0.00000000000000	0.00000000000000	0.00000000000000	0.00000000000000	0.00000000000000	18.94634600000000	0.00000000000000	0.00000000000000	0.00000000000000	0.00000000000000	
15.52993700000000	44.22606500000000	777.33919100000003	58.32124600000000	0.25902600000000	0.00000000000000	0.12792600000000	0.00000000000000	0.00000000000000	0.00000000000000	0.00000000000000	0.00000000000000	0.00000000000000	0.00000000000000	19.00229800000000	0.00000000000000	0.00000000000000	0.00000000000000	0.00000000000000	
15.53160500000000	43.64681300000000	777.10583299999996	58.33627300000000	0.25813600000000	0.00000000000000	0.12797900000000	0.00000000000000	0.00000000000000	0.00000000000000	0.00000000000000	0.00000000000000	0.00000000000000	0.00000000000000	19.05482600000000	0.00000000000000	0.00000000000000	0.00000000000000	0.00000000000000	
15.53327400000000	43.07032300000000	776.78925400000003	58.34462900000000	0.25723600000000	0.00000000000000	0.12803300000000	0.00000000000000	0.00000000000000	0.00000000000000	0.00000000000000	0.00000000000000	0.00000000000000	0.00000000000000	19.10365100000000	0.00000000000000	0.00000000000000	0.00000000000000	0.00000000000000	
